<?xml version="1.0" encoding="UTF-8" standalone="no"?>
<svg
   xmlns:dc="http://purl.org/dc/elements/1.1/"
   xmlns:cc="http://creativecommons.org/ns#"
   xmlns:rdf="http://www.w3.org/1999/02/22-rdf-syntax-ns#"
   xmlns:svg="http://www.w3.org/2000/svg"
   xmlns="http://www.w3.org/2000/svg"
   xmlns:sodipodi="http://sodipodi.sourceforge.net/DTD/sodipodi-0.dtd"
   xmlns:inkscape="http://www.inkscape.org/namespaces/inkscape"
   width="91.112144mm"
   height="24.350346mm"
   viewBox="0 0 91.112145 24.350345"
   version="1.1"
   id="svg8"
   inkscape:version="1.0.2-2 (e86c870879, 2021-01-15)"
   sodipodi:docname="Expiry.svg">
  <defs
     id="defs2" />
  <sodipodi:namedview
     id="base"
     pagecolor="#ffffff"
     bordercolor="#666666"
     borderopacity="1.0"
     inkscape:pageopacity="0.0"
     inkscape:pageshadow="2"
     inkscape:zoom="1"
     inkscape:cx="251.34795"
     inkscape:cy="171.14025"
     inkscape:document-units="mm"
     inkscape:current-layer="layer1"
     inkscape:document-rotation="0"
     showgrid="false"
     fit-margin-top="0"
     fit-margin-left="0"
     fit-margin-right="0"
     fit-margin-bottom="0"
     inkscape:window-width="1920"
     inkscape:window-height="1017"
     inkscape:window-x="-8"
     inkscape:window-y="-8"
     inkscape:window-maximized="1" />
  <metadata
     id="metadata5">
    <rdf:RDF>
      <cc:Work
         rdf:about="">
        <dc:format>image/svg+xml</dc:format>
        <dc:type
           rdf:resource="http://purl.org/dc/dcmitype/StillImage" />
        <dc:title></dc:title>
      </cc:Work>
    </rdf:RDF>
  </metadata>
  <g
     inkscape:label="Lager 1"
     inkscape:groupmode="layer"
     id="layer1"
     transform="translate(-47.533243,-130.0469)">
    <path
       id="path35"
       style="fill:#000000;stroke-width:0.264583"
       d="m 69.098764,130.04987 c -1.573059,0.10239 -2.983455,2.82908 -4.095874,8.0083 -0.242149,1.1274 -0.54751,1.98372 -0.678511,1.90272 -0.376938,-0.23296 -0.280757,-1.45233 0.290939,-3.68763 0.291041,-1.13796 0.529166,-2.10587 0.529166,-2.15077 0,-0.045 -0.208359,-0.008 -0.463021,0.0827 -0.743868,0.26381 -1.389062,0.92294 -1.389062,1.41904 0,0.27396 -0.277334,0.52872 -0.686782,0.63148 -0.530497,0.13315 -0.828796,0.0196 -1.310513,-0.50022 -0.439142,-0.47385 -0.897485,-0.67283 -1.549775,-0.67283 -0.509424,0 -1.229672,-0.13832 -1.600936,-0.30748 -0.886574,-0.40395 -1.0356,-0.2052 -0.547253,0.73122 0.504989,0.96845 0.506923,1.33199 0.0067,1.52394 -0.275153,0.10558 -0.396875,-0.0183 -0.396875,-0.40359 0,-0.30567 -0.411009,-0.94341 -0.913122,-1.41697 -0.717772,-0.67694 -0.950206,-1.14255 -1.087789,-2.17971 -0.234919,-1.77086 -0.38236,-1.95585 -1.397331,-1.75287 -0.617419,0.12349 -0.81525,0.28685 -0.725022,0.59842 0.443264,1.53054 0.447918,2.91675 0.01188,3.58221 -0.379267,0.57884 -0.427284,1.03952 -0.279051,2.67529 0.127164,1.4033 0.09186,1.97662 -0.121441,1.97662 -0.165214,0 -0.362622,-0.23813 -0.438732,-0.52916 -0.07611,-0.29105 -0.344313,-0.52917 -0.595828,-0.52917 -0.251516,0 -0.672471,0.23812 -0.935861,0.52917 -0.265118,0.29294 -0.815242,0.52916 -1.231966,0.52916 -1.881923,0 -2.480532,2.52202 -0.846976,3.56826 0.674036,0.4317 0.888264,0.80861 1.129646,1.98799 0.29695,1.45087 0.29386,1.46416 -1.080555,4.43797 -1.268476,2.74459 -1.344721,3.01676 -0.951879,3.40961 0.650743,0.65074 1.160092,0.27311 2.094961,-1.55184 l 0.853696,-1.66553 0.353984,1.5875 c 0.212688,0.95333 0.57468,1.77246 0.905888,2.05052 0.501687,0.42112 1.36869,0.46302 9.591662,0.46302 7.497413,0 9.13372,-0.0661 9.591145,-0.38654 0.373999,-0.26196 0.658262,-0.92202 0.88315,-2.05052 l 0.331764,-1.66398 0.819587,1.65365 c 0.876948,1.76915 1.558089,2.23858 2.247926,1.54874 0.388903,-0.3889 0.306358,-0.6624 -0.997873,-3.30574 l -1.421617,-2.882 0.311092,-1.54978 c 0.170995,-0.85259 0.450754,-1.59781 0.622183,-1.65571 0.171429,-0.0579 0.586735,-0.38003 0.922425,-0.71572 1.161915,-1.16192 0.465116,-3.2799 -1.079005,-3.2799 -0.395767,0 -0.8098,-0.27126 -1.110525,-0.7276 l -0.479558,-0.72761 -0.153479,0.64182 c -0.08445,0.35301 -0.312862,0.69475 -0.507463,0.75965 -0.28417,0.0947 -0.322199,-0.29203 -0.19327,-1.96474 0.406109,-5.26882 0.316397,-6.33747 -0.608748,-7.26261 -0.555408,-0.55541 -1.09777,-0.81289 -1.622123,-0.77876 z m 47.565576,0.79944 c -1.08796,0 -1.6485,1.08208 -0.93173,1.79885 0.44271,0.44272 1.40433,0.39665 1.80557,-0.0868 0.49644,-0.59815 -0.0721,-1.71203 -0.87384,-1.71203 z m -30.117027,1.5875 c -2.312765,0 -4.204912,0.0905 -4.204912,0.20153 0,0.11102 0.26789,0.31938 0.595312,0.46302 0.587312,0.25767 0.595313,0.32907 0.595313,5.28857 0,4.95949 -0.008,5.03038 -0.595313,5.28805 -0.327422,0.14364 -0.595312,0.41153 -0.595312,0.59531 0,0.25513 0.996317,0.33435 4.215246,0.33435 4.699138,0 4.306081,0.17323 4.651912,-2.05052 0.208169,-1.33857 -0.190232,-1.50539 -0.796334,-0.33332 -0.629283,1.2169 -1.460858,1.63131 -3.086116,1.53841 l -1.412833,-0.0806 -0.07648,-2.4474 -0.07596,-2.44739 h 1.720308 c 1.449623,0 1.765387,0.0833 2.004012,0.52916 0.489434,0.91451 0.701649,0.5823 0.634069,-0.99219 -0.03592,-0.83675 -0.07433,-1.56865 -0.08526,-1.62625 -0.01093,-0.0576 -0.317717,0.2166 -0.681615,0.60926 -0.582223,0.62795 -0.828333,0.70447 -2.05052,0.63407 l -1.388544,-0.0801 v -2.38125 -2.38125 l 1.538922,-0.0801 c 1.468218,-0.0762 1.579285,-0.0365 2.400372,0.8599 1.044702,1.14055 1.220081,1.16493 1.220081,0.16795 0,-1.63304 0.06714,-1.6092 -4.526339,-1.6092 z m -18.2454,0.36431 c 0.771755,-0.0376 2.134238,0.38047 2.134238,0.71469 0,0.36569 -1.628264,0.27576 -2.361097,-0.13023 l -0.640789,-0.35501 0.578776,-0.18397 c 0.08046,-0.0255 0.178623,-0.0401 0.288872,-0.0455 z m 57.879157,1.71979 c -0.66455,-0.0201 -1.4297,0.26134 -2.0345,0.82631 -1.04232,0.97361 -1.1182,0.97873 -1.01131,0.0708 0.11172,-0.94898 -0.39212,-1.03364 -1.97766,-0.33228 -1.34524,0.59507 -1.54675,0.91426 -0.7152,1.13171 0.49636,0.1298 0.52917,0.36105 0.52917,3.72587 0,3.33306 -0.0384,3.60737 -0.53692,3.87419 -0.29515,0.15794 -0.46677,0.40024 -0.38137,0.53846 v 5.3e-4 c 0.20485,0.33143 4.35787,0.32752 4.35787,-0.004 0,-0.14039 -0.23813,-0.3827 -0.52917,-0.53846 -0.48217,-0.25808 -0.52916,-0.55416 -0.52916,-3.33417 0,-3.17038 0.17269,-3.86497 1.0821,-4.35167 0.41715,-0.22325 0.68581,-0.19452 1.17512,0.12609 1.34755,0.88294 2.65578,0.0684 1.81591,-1.13068 -0.2723,-0.38877 -0.72801,-0.58688 -1.24488,-0.60255 z m -16.89613,0.0171 c -0.53414,0.006 -1.06201,0.13768 -1.54254,0.41238 -0.86274,0.49323 -1.05833,0.48732 -1.05833,-0.031 0,-0.4699 -0.44366,-0.42416 -2.17816,0.2248 -1.34603,0.50361 -1.45316,0.67233 -0.62684,0.9865 l 0.70797,0.26923 -0.0879,5.6255 c -0.0486,3.09382 -0.1865,5.89287 -0.30593,6.22029 -0.12542,0.34388 -0.11401,0.59531 0.0269,0.59531 0.13415,0 1.03803,-0.26788 2.00866,-0.59531 1.75554,-0.59219 2.2394,-1.03699 1.32912,-1.22163 -0.67802,-0.13753 -0.86563,-0.53531 -0.87023,-1.8495 -0.004,-0.99373 0.0603,-1.12709 0.4594,-0.96531 1.56052,0.63247 1.91777,0.6834 2.91662,0.41444 2.91878,-0.78595 4.22486,-3.87771 3.0701,-7.26674 -0.58975,-1.73083 -2.24645,-2.83747 -3.84886,-2.81895 z m -14.374831,0.0155 c -2.083795,0 -2.711005,0.32986 -1.594218,0.8387 0.632926,0.28838 3.123441,3.94111 3.133141,4.59507 0.0021,0.15098 -0.432507,0.9571 -0.966349,1.79162 -0.892434,1.3951 -1.286322,1.71531 -2.64015,2.14406 -0.263628,0.0835 -0.405251,0.27157 -0.315224,0.41806 0.221649,0.35597 3.838009,0.34989 3.838009,-0.006 0,-0.15009 -0.178594,-0.3415 -0.396875,-0.4253 -0.218282,-0.0838 -0.396875,-0.32075 -0.396875,-0.52658 0,-0.55081 1.348901,-2.4944 1.616437,-2.32906 0.126037,0.0779 0.547968,0.68526 0.937411,1.34979 0.643863,1.09868 0.667477,1.23087 0.262001,1.45779 -0.84709,0.47405 -0.131429,0.74621 1.962153,0.74621 2.15343,0 2.65719,-0.2872 1.46037,-0.83251 -0.35955,-0.16382 -1.24687,-1.2835 -2.021576,-2.55127 l -1.380278,-2.25877 0.499711,-0.93224 c 0.74074,-1.38133 2.069693,-2.68563 2.736263,-2.68563 0.3507,0 0.54226,-0.13285 0.47698,-0.33073 -0.11795,-0.35751 -2.877656,-0.60894 -3.608049,-0.32866 -0.359521,0.13796 -0.328875,0.23541 0.198953,0.63355 l 0.623734,0.47026 -0.714168,1.1312 c -0.760969,1.20545 -0.799746,1.1984 -1.694987,-0.30024 -0.533567,-0.8932 -0.544873,-0.99364 -0.137459,-1.22163 0.876257,-0.49038 0.08488,-0.8475 -1.878955,-0.8475 z m 36.238101,0.0145 c -1.19003,0.0229 -2.62595,0.21477 -2.7032,0.44855 -0.0601,0.1819 0.0858,0.33073 0.32453,0.33073 0.45337,0 1.25069,1.57938 3.34915,6.63577 l 1.11208,2.67994 -0.97049,1.96112 c -0.53368,1.07855 -0.96996,2.02686 -0.96996,2.10736 0,0.0805 0.2505,0.108 0.55707,0.0615 0.61543,-0.0934 0.4958,0.17506 3.45974,-7.75715 1.03311,-2.7649 1.9956,-5.17591 2.13837,-5.35781 0.14278,-0.18191 0.49289,-0.33073 0.77824,-0.33073 0.29746,0 0.47196,-0.14111 0.40876,-0.33073 -0.14194,-0.42583 -3.15547,-0.45651 -3.29644,-0.0336 -0.0545,0.16337 0.14433,0.36052 0.44132,0.43822 0.29699,0.0777 0.54002,0.31623 0.54002,0.5302 0,0.63281 -1.76285,5.3193 -2.03502,5.41 -0.13745,0.0458 -0.76878,-1.18357 -1.4025,-2.73161 l -1.15187,-2.81432 0.63924,-0.48214 c 0.53543,-0.40388 0.57048,-0.50899 0.21756,-0.64441 -0.18741,-0.0719 -0.53211,-0.10926 -0.9462,-0.11989 -0.15528,-0.004 -0.3204,-0.004 -0.4904,-0.001 z m -13.61726,0.0724 c -0.73901,0.0463 -3.1684,0.77273 -3.1719,0.99528 -10e-4,0.0858 0.29559,0.29157 0.65939,0.45734 0.65541,0.29872 0.66133,0.33107 0.65733,3.6804 -0.004,3.50594 -0.0726,3.82865 -0.87282,4.12429 -0.26392,0.0975 -0.40583,0.29683 -0.31522,0.44338 0.0906,0.14655 1.10351,0.26666 2.2505,0.26666 2.0073,0 2.93508,-0.34045 1.93477,-0.71004 -0.26389,-0.0975 -0.57344,-0.30534 -0.68781,-0.46147 -0.11439,-0.15614 -0.17715,-2.15266 -0.14005,-4.43694 0.0372,-2.28428 -0.0139,-4.23428 -0.11317,-4.33358 -0.0246,-0.0246 -0.0954,-0.0319 -0.20102,-0.0253 z m -49.755618,0.23357 c 0.720785,0.005 1.858962,0.27832 2.305285,0.6165 0.440161,0.33356 0.37238,0.36874 -0.702799,0.36794 -1.301057,-0.001 -2.665712,-0.5689 -2.143022,-0.89194 0.106405,-0.0658 0.300273,-0.094 0.540536,-0.0925 z m 41.038838,0.51573 c 0.077,2.7e-4 0.15579,0.004 0.23668,0.0109 0.80265,0.0675 1.0161,0.23384 1.45727,1.1374 0.74828,1.5326 0.87705,5.22368 0.22635,6.48229 -0.39356,0.76123 -0.64334,0.93734 -1.40457,0.99064 -2.02778,0.14211 -2.64583,-0.97801 -2.64583,-4.79506 0,-2.69565 0.0193,-2.78736 0.71313,-3.33313 0.42969,-0.33804 0.8781,-0.49538 1.41697,-0.49299 z m -41.600046,1.65727 c 0.809868,-0.0493 2.344441,0.33245 2.564701,0.68884 0.232434,0.37608 -1.710735,0.29608 -2.649966,-0.10903 -0.760545,-0.32803 -0.769816,-0.35003 -0.211873,-0.53072 0.08016,-0.026 0.181444,-0.042 0.297138,-0.0491 z m -9.098669,0.94619 c 1.16957,0 1.590313,0.5111 1.173573,1.42576 -0.276323,0.60647 -0.472083,0.69091 -1.595769,0.69091 -1.050628,0 -1.280025,-0.0844 -1.280025,-0.47026 0,-0.90092 0.770639,-1.64641 1.702221,-1.64641 z m 3.651975,0.95085 c 0.598072,0.007 1.172379,0.29052 1.348237,0.74879 0.134877,0.35145 -0.09205,0.41703 -1.441257,0.41703 -1.7298,0 -1.989119,-0.36709 -0.70228,-0.99477 0.246594,-0.12028 0.523446,-0.1743 0.7953,-0.17105 z m 5.082376,0.23874 c 0.766096,-0.0309 2.488644,0.38469 2.680457,0.69505 0.224962,0.36399 -2.065264,0.25309 -2.763139,-0.13384 -0.541473,-0.30022 -0.56624,-0.37056 -0.179835,-0.51883 0.06318,-0.0242 0.153075,-0.038 0.262517,-0.0424 z m -5.25911,2.25 h 12.586311 l -0.08475,0.59531 -0.08423,0.59531 -12.322762,0.0687 c -6.777424,0.0378 -12.403122,-0.0117 -12.501563,-0.11007 -0.09844,-0.0984 -0.1788,-0.39777 -0.1788,-0.66456 0,-0.46357 0.557469,-0.48472 12.585795,-0.48472 z m -10.906828,2.11666 h 1.409215 1.409735 l 0.03927,0.92605 c 0.02183,0.50932 0.0516,1.06477 0.06615,1.23454 0.01455,0.16978 -0.139142,0.364 -0.34158,0.4315 -0.281093,0.0937 -0.325316,-0.0476 -0.187068,-0.59841 0.338648,-1.34929 -0.997773,-2.01677 -1.754931,-0.87643 -0.388446,0.58503 -0.391234,0.58366 -0.515731,-0.26459 z m 4.937167,0 h 1.516187 l 0.149344,1.11259 c 0.08206,0.61193 0.09061,1.20723 0.01913,1.32292 -0.0715,0.11565 -0.716227,0.21033 -1.43247,0.21033 -1.39805,0 -1.354098,0.0506 -1.656228,-1.91823 -0.110808,-0.7216 -0.100417,-0.72761 1.404048,-0.72761 z m 2.379699,0 h 1.5875 1.5875 v 1.32292 1.32292 H 59.76445 c -0.776113,0 -1.490488,-0.0797 -1.5875,-0.17674 -0.09702,-0.097 -0.176216,-0.69232 -0.176216,-1.32291 z m 3.96875,0 h 1.5875 1.5875 v 0.90434 c 0,0.49742 -0.07238,1.09274 -0.160713,1.32292 -0.118975,0.31003 -0.530431,0.41858 -1.5875,0.41858 h -1.426787 v -1.32292 z m 4.015259,0 h 1.431954 c 1.38662,0 1.431835,0.023 1.428337,0.72761 -0.0021,0.40019 -0.07555,0.99549 -0.163298,1.32291 -0.137491,0.51301 -0.336032,0.59532 -1.43609,0.59532 -0.702045,0 -1.352666,-0.12355 -1.445905,-0.27441 -0.09328,-0.15086 -0.08969,-0.74616 0.0078,-1.32291 z m 5.015198,0 c 1.197798,0 1.288293,0.0465 1.288293,0.66146 0,0.72761 -0.385103,0.89048 -0.625284,0.26459 -0.192011,-0.50037 -1.063993,-0.5154 -1.470713,-0.0253 -0.175636,0.21163 -0.23408,0.66718 -0.135909,1.05834 0.132041,0.52609 0.07278,0.68678 -0.253214,0.68678 -0.468328,0 -0.497753,-0.18984 -0.255799,-1.65365 0.163346,-0.98818 0.169471,-0.99218 1.452626,-0.99218 z m -17.879012,3.175 c 0.712226,0 0.792014,0.13137 1.004072,1.65365 l 0.137975,0.99219 h -1.156001 c -0.913908,0 -1.190374,-0.10841 -1.319816,-0.51625 -0.261943,-0.82531 0.554985,-2.12959 1.33377,-2.12959 z m 3.043224,0 c 1.10186,0 1.307415,0.078 1.307415,0.4961 0,0.27285 0.07441,0.86816 0.165364,1.32291 l 0.165365,0.82683 h -1.460894 -1.460376 l -0.118856,-1.12448 c -0.06538,-0.61846 -0.07058,-1.21378 -0.01188,-1.32292 0.05868,-0.10914 0.694852,-0.19844 1.413867,-0.19844 z m 2.101165,0 h 1.455208 1.455208 v 1.32292 1.32292 h -1.455208 -1.455208 v -1.32292 z m 3.704166,0 h 1.455209 1.455208 v 0.90434 c 0,0.49742 -0.07239,1.09274 -0.160713,1.32292 -0.116168,0.30272 -0.518769,0.41858 -1.455209,0.41858 h -1.294495 v -1.32292 z m 8.054287,0 c 0.78449,0 1.524937,1.1887 1.292945,2.07584 -0.124225,0.475 -0.3433,0.57 -1.320332,0.57 h -1.172022 l 0.164849,-0.99219 c 0.255955,-1.54011 0.32694,-1.65365 1.03456,-1.65365 z m -3.701581,0.0238 c 0.192106,-0.003 0.44301,0.0101 0.775663,0.0295 l 1.353923,0.0791 -0.09198,1.05834 c -0.0505,0.58209 -0.146709,1.14762 -0.21394,1.25677 -0.06723,0.10913 -0.710871,0.19844 -1.429887,0.19844 -1.427877,0 -1.486845,-0.095 -1.139465,-1.83193 0.123785,-0.61896 0.169375,-0.78051 0.745691,-0.79014 z m -14.202751,3.41582 h 1.083656 c 1.160206,0 1.114123,-0.0642 1.466059,2.05052 0.141147,0.8481 0.128934,0.85989 -0.892969,0.85989 -1.210879,0 -1.2232,-0.0137 -1.468644,-1.65364 z m 2.904733,0 h 1.355989 c 1.11392,0 1.356173,0.0827 1.358572,0.46302 0.0016,0.25467 0.07672,0.9095 0.166915,1.45521 l 0.164333,0.99218 h -1.35754 c -1.252596,0 -1.35754,-0.0486 -1.35754,-0.62838 0,-0.34561 -0.07441,-1.00046 -0.165365,-1.45521 z m 3.505729,0 h 1.322917 1.322916 v 1.4552 1.45521 h -1.162719 c -1.306227,0 -1.483114,-0.22399 -1.483114,-1.87378 z m 3.439583,0 h 1.322917 c 1.452851,0 1.542129,0.1607 1.157552,2.08359 -0.154969,0.77482 -0.238125,0.82682 -1.322917,0.82682 h -1.157552 v -1.45521 z m 4.798674,0 H 68.0611 l -0.157612,1.12448 c -0.08661,0.61846 -0.203356,1.2733 -0.259416,1.4552 -0.06193,0.20093 -0.572302,0.33073 -1.300694,0.33073 -1.313879,0 -1.411055,-0.19597 -1.033529,-2.08359 0.158136,-0.79073 0.221848,-0.82682 1.458309,-0.82682 z m 3.160014,0 h 1.096055 l -0.176215,0.99218 c -0.09671,0.5457 -0.2368,1.20055 -0.31161,1.45521 -0.0998,0.33973 -0.414042,0.46302 -1.179772,0.46302 h -1.043348 l 0.157097,-1.12448 c 0.24461,-1.74664 0.277032,-1.78593 1.457793,-1.78593 z" />
  </g>
</svg>
